<svg xmlns="http://www.w3.org/2000/svg" viewBox="0 0 64 64" role="img" aria-label="ZOOM">
  <defs>
    <clipPath id="g"><circle cx="37" cy="28" r="19"/></clipPath>
    <linearGradient id="gg" x1="0" y1="0" x2="1" y2="1">
      <stop offset="0" stop-color="#2f86f5"/><stop offset="1" stop-color="#1763d6"/>
    </linearGradient>
    <linearGradient id="rg" x1="0" y1="0" x2="1" y2="1">
      <stop offset="0" stop-color="#27d977"/><stop offset="1" stop-color="#11b35c"/>
    </linearGradient>
  </defs>
  <!-- globe -->
  <circle cx="37" cy="28" r="19" fill="url(#gg)"/>
  <g clip-path="url(#g)" stroke="#fff" fill="none" opacity="0.55" stroke-width="1.4">
    <line x1="18" y1="28" x2="56" y2="28"/>
    <ellipse cx="37" cy="28" rx="19" ry="7"/>
    <ellipse cx="37" cy="28" rx="7" ry="19"/>
  </g>
  <g clip-path="url(#g)" fill="#fff" opacity="0.95">
    <path d="M30,18 q5,-3 9,0 q3,3 -1,6 q-6,3 -9,-1 q-2,-3 1,-5 Z"/>
    <path d="M40,34 q6,-1 7,3 q1,4 -4,5 q-6,1 -7,-3 q-1,-4 4,-5 Z"/>
  </g>
  <!-- plane + arc -->
  <path d="M47,16 Q52,6 58,11" fill="none" stroke="#0e1726" stroke-width="1.8" stroke-linecap="round" stroke-dasharray="0.5 4.5"/>
  <g transform="translate(55,7) rotate(-22)" fill="#0e1726">
    <path d="M3,0 Q3,-1.6 6,-1.6 L16,-1 Q19,0 16,1 L6,1.6 Q3,1.6 3,0 Z"/>
    <path d="M8,-1.2 L1,-7 Q0,-7 0.6,-5.5 L7,-0.5 Z"/>
    <path d="M8,1.2 L1,7 Q0,7 0.6,5.5 L7,0.5 Z"/>
  </g>
  <!-- magnifier (front) -->
  <circle cx="24" cy="40" r="12" fill="#fff"/>
  <circle cx="24" cy="40" r="12" fill="none" stroke="url(#rg)" stroke-width="5"/>
  <line x1="32.5" y1="48.5" x2="42" y2="58" stroke="#0e1726" stroke-width="5.5" stroke-linecap="round"/>
</svg>
